<svg xmlns="http://www.w3.org/2000/svg" viewBox="-0.000647798 -0.000647798 50.39 40.31">
	<path d="M 23.1682 0.0945 c 0.4016 0.1654 0.6851 0.5276 0.756 0.9529 l 1.1104 6.6701 l 6.6701 1.1104 c 0.4252 0.0709 0.7875 0.3544 0.9529 0.756 s 0.1181 0.8584 -0.126 1.2127 l -3.0319 4.3312 c -0.1733 -0.0079 -0.3465 -0.0158 -0.5276 -0.0158 c -1.8349 0 -3.5516 0.4883 -5.04 1.3466 l 0 -0.0866 c 0 -4.1737 -3.3862 -7.56 -7.56 -7.56 s -7.56 3.3862 -7.56 7.56 s 3.3862 7.56 7.56 7.56 c 0.6379 0 1.2521 -0.0788 1.8427 -0.2284 c -2.8822 1.4254 -4.9849 4.1816 -5.4967 7.4734 l -1.9215 1.3387 c -0.3544 0.2441 -0.8111 0.2992 -1.2127 0.126 s -0.6851 -0.5276 -0.756 -0.9529 L 7.7254 25.0346 L 1.0553 23.9243 c -0.4252 -0.0709 -0.7875 -0.3544 -0.9529 -0.756 s -0.1181 -0.8584 0.126 -1.2127 L 4.1344 16.38 L 0.2284 10.8045 c -0.252 -0.3544 -0.2992 -0.8111 -0.126 -1.2127 s 0.5276 -0.6851 0.9529 -0.756 L 7.7254 7.7254 l 1.1104 -6.6701 c 0.0709 -0.4252 0.3544 -0.7875 0.756 -0.9529 s 0.8584 -0.1181 1.2127 0.126 L 16.38 4.1344 L 21.9555 0.2284 c 0.3544 -0.252 0.8111 -0.2992 1.2127 -0.126 z M 11.34 16.38 a 5.04 5.04 90 1 1 10.08 0 a 5.04 5.04 90 1 1 -10.08 0 z M 50.3921 34.0121 c 0 3.4808 -2.8192 6.3 -6.3 6.3 H 22.68 c -4.1737 0 -7.56 -3.3862 -7.56 -7.56 c 0 -3.7485 2.7247 -6.8513 6.3 -7.4497 l 0 -0.1024 c 0 -4.1737 3.3862 -7.56 7.56 -7.56 c 2.7484 0 5.1503 1.4647 6.4733 3.654 c 1.0237 -0.7166 2.268 -1.134 3.6067 -1.134 c 3.4808 0 6.3 2.8192 6.3 6.3 c 0 0.4646 -0.0473 0.9214 -0.1496 1.3545 c 2.9452 0.5276 5.1817 3.1027 5.1817 6.1976 z" fill=" #6366f1"/>
</svg>